<svg version="1.1" id="Layer_1" xmlns="http://www.w3.org/2000/svg" xmlns:xlink="http://www.w3.org/1999/xlink" x="0px" y="0px"
	 width="100%" viewBox="0 0 630 630" enable-background="new 0 0 630 630" xml:space="preserve">
<path fill="#FFFFFF" opacity="1.000000" stroke="none" 
	d="
M1.000000,227.000000 
	C1.000000,151.348236 1.000000,76.196472 1.000000,1.022352 
	C210.943466,1.022352 420.886932,1.022352 630.915161,1.022352 
	C630.915161,210.901810 630.915161,420.803650 630.915161,630.852783 
	C421.000061,630.852783 211.000046,630.852783 1.000000,630.852783 
	C1.000000,496.446320 1.000000,361.973175 1.000000,227.000000 
M61.999500,69.500000 
	C61.999500,246.925598 61.999500,424.351196 61.999500,601.715515 
	C231.638367,601.715515 400.707733,601.715515 569.715698,601.715515 
	C569.715698,411.028076 569.715698,220.625687 569.715698,30.284538 
	C400.361481,30.284538 231.292084,30.284538 61.999500,30.284538 
	C61.999500,43.212360 61.999500,55.856182 61.999500,69.500000 
z"/>
<path fill="#000000" opacity="1.000000" stroke="none" 
	d="
M61.999500,69.000000 
	C61.999500,55.856182 61.999500,43.212360 61.999500,30.284538 
	C231.292084,30.284538 400.361481,30.284538 569.715698,30.284538 
	C569.715698,220.625687 569.715698,411.028076 569.715698,601.715515 
	C400.707733,601.715515 231.638367,601.715515 61.999500,601.715515 
	C61.999500,424.351196 61.999500,246.925598 61.999500,69.000000 
M255.498566,546.994507 
	C270.537933,555.677612 285.564117,564.383728 300.621216,573.035950 
	C311.123627,579.070923 321.379944,578.819641 331.952271,572.633911 
	C365.671814,552.905090 399.557983,533.461182 433.371277,513.892517 
	C466.480530,494.731354 499.578369,475.550507 532.683472,456.382111 
	C541.126465,451.493500 545.886475,444.020844 545.906372,434.439636 
	C546.070312,355.444641 546.052124,276.449066 545.925171,197.453934 
	C545.909729,187.846573 541.407166,180.319870 532.934082,175.424957 
	C489.080780,150.090775 445.231537,124.749557 401.367188,99.434517 
	C377.298065,85.543724 353.265900,71.586838 329.083832,57.895077 
	C320.451111,53.007278 311.387238,53.234406 302.653900,57.976421 
	C294.946686,62.161282 287.361267,66.573341 279.766602,70.962151 
	C219.725815,105.658485 159.699753,140.380295 99.657898,175.074768 
	C90.878159,180.148041 86.065407,187.693130 86.055695,197.813675 
	C85.979912,276.808929 85.957054,355.804413 86.086411,434.799530 
	C86.101807,444.202667 90.549484,451.616028 98.823685,456.404022 
	C150.825424,486.495392 202.842926,516.559509 255.498566,546.994507 
z"/>
<path fill="#FDFDFD" opacity="1.000000" stroke="none" 
	d="
M255.176880,546.813599 
	C202.842926,516.559509 150.825424,486.495392 98.823685,456.404022 
	C90.549484,451.616028 86.101807,444.202667 86.086411,434.799530 
	C85.957054,355.804413 85.979912,276.808929 86.055695,197.813675 
	C86.065407,187.693130 90.878159,180.148041 99.657898,175.074768 
	C159.699753,140.380295 219.725815,105.658485 279.766602,70.962151 
	C287.361267,66.573341 294.946686,62.161282 302.653900,57.976421 
	C311.387238,53.234406 320.451111,53.007278 329.083832,57.895077 
	C353.265900,71.586838 377.298065,85.543724 401.367188,99.434517 
	C445.231537,124.749557 489.080780,150.090775 532.934082,175.424957 
	C541.407166,180.319870 545.909729,187.846573 545.925171,197.453934 
	C546.052124,276.449066 546.070312,355.444641 545.906372,434.439636 
	C545.886475,444.020844 541.126465,451.493500 532.683472,456.382111 
	C499.578369,475.550507 466.480530,494.731354 433.371277,513.892517 
	C399.557983,533.461182 365.671814,552.905090 331.952271,572.633911 
	C321.379944,578.819641 311.123627,579.070923 300.621216,573.035950 
	C285.564117,564.383728 270.537933,555.677612 255.176880,546.813599 
M221.098373,499.365448 
	C251.168991,516.758423 281.264526,534.108704 311.273468,551.607544 
	C314.427948,553.446899 316.698059,553.872375 320.170166,551.853699 
	C386.271332,513.423828 452.463470,475.150299 518.704956,436.962555 
	C521.505371,435.348114 522.060730,433.530121 522.058105,430.613037 
	C521.988525,354.123688 521.981201,277.634216 522.078247,201.144928 
	C522.082397,197.903442 521.165405,196.209610 518.282837,194.548782 
	C451.889435,156.294754 385.560089,117.929382 319.283508,79.473213 
	C316.663544,77.953011 314.936493,78.286140 312.542145,79.674034 
	C246.100601,118.187126 179.607635,156.611526 113.207298,195.195404 
	C111.644310,196.103622 110.131973,198.669266 110.128410,200.464890 
	C109.975647,277.453949 110.012367,354.443359 109.936272,431.432617 
	C109.933449,434.291687 110.806648,435.765503 113.341927,437.221130 
	C149.088867,457.745209 184.750473,478.417969 221.098373,499.365448 
z"/>
<path fill="#010301" opacity="1.000000" stroke="none" 
	d="
M220.765579,499.210022 
	C184.750473,478.417969 149.088867,457.745209 113.341927,437.221130 
	C110.806648,435.765503 109.933449,434.291687 109.936272,431.432617 
	C110.012367,354.443359 109.975647,277.453949 110.128410,200.464890 
	C110.131973,198.669266 111.644310,196.103622 113.207298,195.195404 
	C179.607635,156.611526 246.100601,118.187126 312.542145,79.674034 
	C314.936493,78.286140 316.663544,77.953011 319.283508,79.473213 
	C385.560089,117.929382 451.889435,156.294754 518.282837,194.548782 
	C521.165405,196.209610 522.082397,197.903442 522.078247,201.144928 
	C521.981201,277.634216 521.988525,354.123688 522.058105,430.613037 
	C522.060730,433.530121 521.505371,435.348114 518.704956,436.962555 
	C452.463470,475.150299 386.271332,513.423828 320.170166,551.853699 
	C316.698059,553.872375 314.427948,553.446899 311.273468,551.607544 
	C281.264526,534.108704 251.168991,516.758423 220.765579,499.210022 
M179.144424,446.287323 
	C223.640320,472.055481 268.149719,497.800385 312.597229,523.651733 
	C315.166168,525.145874 316.993286,524.879883 319.398010,523.460632 
	C331.252167,516.464417 343.213959,509.650787 355.125488,502.751617 
	C402.356476,475.395386 449.582855,448.031219 496.773438,420.691711 
	C496.849976,420.301361 496.968170,419.979858 496.968323,419.658295 
	C496.997253,351.169952 497.043732,282.681580 496.889313,214.193649 
	C496.885468,212.486725 495.042236,210.123032 493.411926,209.176239 
	C435.596313,175.600830 377.690125,142.181396 319.861603,108.628136 
	C317.027069,106.983482 314.997284,106.933975 312.200439,108.613960 
	C301.820618,114.848824 291.278656,120.813599 280.798828,126.882011 
	C233.272400,154.402588 185.762039,181.951065 138.177094,209.370102 
	C135.622375,210.842148 134.902252,212.406204 134.905182,215.188690 
	C134.975967,282.343964 134.993683,349.499390 134.855927,416.654480 
	C134.848938,420.063782 136.094589,421.603271 138.812668,423.140411 
	C152.092407,430.650146 165.264267,438.350616 179.144424,446.287323 
z"/>
<path fill="#FDFEFD" opacity="1.000000" stroke="none" 
	d="
M178.809357,446.135498 
	C165.264267,438.350616 152.092407,430.650146 138.812668,423.140411 
	C136.094589,421.603271 134.848938,420.063782 134.855927,416.654480 
	C134.993683,349.499390 134.975967,282.343964 134.905182,215.188690 
	C134.902252,212.406204 135.622375,210.842148 138.177094,209.370102 
	C185.762039,181.951065 233.272400,154.402588 280.798828,126.882011 
	C291.278656,120.813599 301.820618,114.848824 312.200439,108.613960 
	C314.997284,106.933975 317.027069,106.983482 319.861603,108.628136 
	C377.690125,142.181396 435.596313,175.600830 493.411926,209.176239 
	C495.042236,210.123032 496.885468,212.486725 496.889313,214.193649 
	C497.043732,282.681580 496.997253,351.169952 496.968323,419.658295 
	C496.968170,419.979858 496.849976,420.301361 496.773438,420.691711 
	C449.582855,448.031219 402.356476,475.395386 355.125488,502.751617 
	C343.213959,509.650787 331.252167,516.464417 319.398010,523.460632 
	C316.993286,524.879883 315.166168,525.145874 312.597229,523.651733 
	C268.149719,497.800385 223.640320,472.055481 178.809357,446.135498 
M280.915558,184.084534 
	C282.284546,182.651764 283.412476,180.795227 285.062561,179.856491 
	C294.278351,174.613647 303.707794,169.742722 312.867615,164.407166 
	C315.716431,162.747742 317.716736,162.759796 320.481232,164.462219 
	C334.326996,172.988617 348.294678,181.317337 362.234039,189.691360 
	C367.279755,192.722549 372.365845,195.686493 377.646057,198.806702 
	C382.859283,190.796753 387.716644,183.333588 392.622375,175.796112 
	C391.625702,174.998245 391.037811,174.397842 390.338593,173.986710 
	C367.039551,160.286819 343.686066,146.678329 320.477234,132.827469 
	C317.586700,131.102417 315.676636,131.260406 312.961426,132.888840 
	C295.468292,143.380295 277.917999,153.778824 260.276306,164.018036 
	C256.889130,165.983948 255.646194,168.199127 255.651825,172.207687 
	C255.781830,264.847198 256.017120,357.488586 255.419586,450.124420 
	C255.343689,461.889069 258.025513,469.519775 268.788910,474.283569 
	C272.875916,476.092407 276.456512,479.045532 281.040283,481.969879 
	C281.040283,430.898132 281.040283,381.142883 281.040283,330.926208 
	C311.566254,330.926208 341.796509,330.926208 372.118286,330.926208 
	C372.118286,320.410370 372.118286,310.361115 372.118286,299.855835 
	C341.533997,299.855835 311.305237,299.855835 280.920105,299.855835 
	C280.920105,261.254608 280.920105,223.114700 280.915558,184.084534 
M198.274887,379.186462 
	C203.520889,399.046234 208.739655,418.913269 214.058502,438.753540 
	C214.547531,440.577728 215.211823,442.952301 216.588058,443.836334 
	C222.110474,447.383789 227.945404,450.444733 233.921829,453.831146 
	C233.921829,363.543793 233.921829,273.762054 233.921829,183.422989 
	C226.182968,187.902832 219.167206,192.294800 211.835266,196.073242 
	C207.988739,198.055511 207.035995,200.525589 207.057785,204.661102 
	C207.242065,239.659973 207.174866,274.660156 207.183090,309.659973 
	C207.183517,311.500824 207.183136,313.341644 207.183136,315.182495 
	C206.869217,315.194763 206.555298,315.207001 206.241394,315.219238 
	C197.062988,283.845154 187.884583,252.471069 178.594894,220.716614 
	C171.435959,224.886490 164.775986,228.590622 158.343460,232.654724 
	C156.996521,233.505707 155.709717,235.681000 155.705154,237.249832 
	C155.542053,293.249023 155.525726,349.248627 155.562241,405.248169 
	C155.563110,406.587891 155.987869,408.587769 156.910110,409.160706 
	C163.584549,413.307037 170.438080,417.165100 178.071350,421.600372 
	C178.071350,382.172546 178.071350,343.898743 178.071350,305.624939 
	C178.346191,305.594666 178.621033,305.564423 178.895874,305.534149 
	C185.281708,329.820251 191.667526,354.106384 198.274887,379.186462 
M422.290619,417.500580 
	C422.290619,426.402374 422.290619,435.304169 422.290619,445.186279 
	C430.974579,440.184387 438.462738,435.643127 446.182068,431.536377 
	C449.305054,429.874908 450.080414,427.831604 450.075073,424.497498 
	C449.980591,365.505127 450.006653,306.512573 450.006714,247.520050 
	C450.006714,245.782425 450.006683,244.044800 450.006683,241.707581 
	C461.824432,249.728683 472.969635,257.293304 484.911469,265.398651 
	C484.911469,255.591080 484.781189,246.955978 484.983978,238.328720 
	C485.052643,235.408432 483.965088,233.913742 481.551117,232.441788 
	C472.056885,226.652649 462.720673,220.604584 453.319214,214.663040 
	C436.776764,204.208557 420.229523,193.761703 403.391510,183.126755 
	C398.787445,190.460388 394.333466,197.554962 389.718292,204.906296 
	C399.263702,211.039948 408.380127,217.087341 417.707489,222.789658 
	C421.012878,224.810410 422.384918,226.963272 422.375244,231.024277 
	C422.227814,292.849335 422.282867,354.674927 422.290619,417.500580 
z"/>
<path fill="#010201" opacity="1.000000" stroke="none" 
	d="
M280.917847,184.529663 
	C280.920105,223.114700 280.920105,261.254608 280.920105,299.855835 
	C311.305237,299.855835 341.533997,299.855835 372.118286,299.855835 
	C372.118286,310.361115 372.118286,320.410370 372.118286,330.926208 
	C341.796509,330.926208 311.566254,330.926208 281.040283,330.926208 
	C281.040283,381.142883 281.040283,430.898132 281.040283,481.969879 
	C276.456512,479.045532 272.875916,476.092407 268.788910,474.283569 
	C258.025513,469.519775 255.343689,461.889069 255.419586,450.124420 
	C256.017120,357.488586 255.781830,264.847198 255.651825,172.207687 
	C255.646194,168.199127 256.889130,165.983948 260.276306,164.018036 
	C277.917999,153.778824 295.468292,143.380295 312.961426,132.888840 
	C315.676636,131.260406 317.586700,131.102417 320.477234,132.827469 
	C343.686066,146.678329 367.039551,160.286819 390.338593,173.986710 
	C391.037811,174.397842 391.625702,174.998245 392.622375,175.796112 
	C387.716644,183.333588 382.859283,190.796753 377.646057,198.806702 
	C372.365845,195.686493 367.279755,192.722549 362.234039,189.691360 
	C348.294678,181.317337 334.326996,172.988617 320.481232,164.462219 
	C317.716736,162.759796 315.716431,162.747742 312.867615,164.407166 
	C303.707794,169.742722 294.278351,174.613647 285.062561,179.856491 
	C283.412476,180.795227 282.284546,182.651764 280.917847,184.529663 
z"/>
<path fill="#010301" opacity="1.000000" stroke="none" 
	d="
M198.164124,378.789490 
	C191.667526,354.106384 185.281708,329.820251 178.895874,305.534149 
	C178.621033,305.564423 178.346191,305.594666 178.071350,305.624939 
	C178.071350,343.898743 178.071350,382.172546 178.071350,421.600372 
	C170.438080,417.165100 163.584549,413.307037 156.910110,409.160706 
	C155.987869,408.587769 155.563110,406.587891 155.562241,405.248169 
	C155.525726,349.248627 155.542053,293.249023 155.705154,237.249832 
	C155.709717,235.681000 156.996521,233.505707 158.343460,232.654724 
	C164.775986,228.590622 171.435959,224.886490 178.594894,220.716614 
	C187.884583,252.471069 197.062988,283.845154 206.241394,315.219238 
	C206.555298,315.207001 206.869217,315.194763 207.183136,315.182495 
	C207.183136,313.341644 207.183517,311.500824 207.183090,309.659973 
	C207.174866,274.660156 207.242065,239.659973 207.057785,204.661102 
	C207.035995,200.525589 207.988739,198.055511 211.835266,196.073242 
	C219.167206,192.294800 226.182968,187.902832 233.921829,183.422989 
	C233.921829,273.762054 233.921829,363.543793 233.921829,453.831146 
	C227.945404,450.444733 222.110474,447.383789 216.588058,443.836334 
	C215.211823,442.952301 214.547531,440.577728 214.058502,438.753540 
	C208.739655,418.913269 203.520889,399.046234 198.164124,378.789490 
z"/>
<path fill="#020502" opacity="1.000000" stroke="none" 
	d="
M422.290619,417.000488 
	C422.282867,354.674927 422.227814,292.849335 422.375244,231.024277 
	C422.384918,226.963272 421.012878,224.810410 417.707489,222.789658 
	C408.380127,217.087341 399.263702,211.039948 389.718292,204.906296 
	C394.333466,197.554962 398.787445,190.460388 403.391510,183.126755 
	C420.229523,193.761703 436.776764,204.208557 453.319214,214.663040 
	C462.720673,220.604584 472.056885,226.652649 481.551117,232.441788 
	C483.965088,233.913742 485.052643,235.408432 484.983978,238.328720 
	C484.781189,246.955978 484.911469,255.591080 484.911469,265.398651 
	C472.969635,257.293304 461.824432,249.728683 450.006683,241.707581 
	C450.006683,244.044800 450.006714,245.782425 450.006714,247.520050 
	C450.006653,306.512573 449.980591,365.505127 450.075073,424.497498 
	C450.080414,427.831604 449.305054,429.874908 446.182068,431.536377 
	C438.462738,435.643127 430.974579,440.184387 422.290619,445.186279 
	C422.290619,435.304169 422.290619,426.402374 422.290619,417.000488 
z"/>
</svg>