<svg version="1.1" id="Layer_1" xmlns="http://www.w3.org/2000/svg" xmlns:xlink="http://www.w3.org/1999/xlink" x="0px" y="0px"
	 width="100%" viewBox="0 0 624 624" enable-background="new 0 0 624 624" xml:space="preserve">
<path fill="#000000" opacity="1.000000" stroke="none" 
	d="
M570.341919,242.000092 
	C570.343018,304.989929 570.065002,367.481689 570.492737,429.968597 
	C570.647827,452.621521 561.020020,468.510925 541.742615,479.548828 
	C517.282532,493.554199 493.067688,507.987274 468.647919,522.063843 
	C442.074585,537.381775 415.212067,552.205688 388.813263,567.816040 
	C371.846436,577.848999 355.067596,588.261658 337.516632,597.176514 
	C324.097565,603.992615 309.460602,604.030640 295.746643,597.640137 
	C278.298096,589.509399 262.063751,579.054504 245.401962,569.428101 
	C229.471207,560.223999 213.378845,551.299377 197.456726,542.080566 
	C179.368134,531.607361 161.427490,520.878906 143.352737,510.381561 
	C124.705963,499.551971 105.811211,489.139893 87.331062,478.035736 
	C71.398453,468.462311 61.684265,454.630707 61.672104,435.347656 
	C61.621880,355.693970 61.671207,276.040222 61.638271,196.386520 
	C61.631481,179.965393 68.782639,167.111572 81.788475,157.804092 
	C95.421341,148.047882 110.528831,140.597733 124.954391,132.079559 
	C146.825684,119.164726 168.935379,106.653885 190.931213,93.949646 
	C221.692200,76.182892 252.481003,58.463692 283.173523,40.579357 
	C293.190826,34.742352 303.487030,29.975822 315.332794,29.960171 
	C327.273590,29.944391 337.939056,34.039474 348.147644,40.044014 
	C371.324707,53.676441 394.690552,66.987595 417.955811,80.470528 
	C440.362915,93.456146 462.722565,106.523628 485.135468,119.499199 
	C505.244293,131.140854 525.602356,142.368027 545.464783,154.414001 
	C561.023010,163.849594 570.257141,177.652832 570.334106,196.508743 
	C570.395264,211.505630 570.343506,226.502960 570.341919,242.000092 
M545.649536,248.500107 
	C545.648926,232.000641 545.749573,215.500305 545.609070,199.002045 
	C545.527466,189.423599 542.023010,181.389755 533.470947,176.344879 
	C520.851868,168.900833 508.119934,161.647949 495.427521,154.328430 
	C463.839233,136.112045 432.232819,117.927078 400.659424,99.684929 
	C377.745300,86.445831 354.855438,73.164551 331.988739,59.843674 
	C321.813965,53.916397 311.610626,53.241646 301.240692,59.232540 
	C267.799622,78.552025 234.359619,97.873375 200.920929,117.197029 
	C167.480453,136.521698 134.110626,155.970245 100.558632,175.099289 
	C91.182640,180.444824 86.435387,188.261185 86.418419,198.644562 
	C86.290176,277.139160 86.301483,355.634125 86.424561,434.128723 
	C86.438683,443.137604 90.273689,450.772644 98.147018,455.514221 
	C110.837967,463.157104 123.797958,470.352661 136.628555,477.764435 
	C169.647842,496.838440 202.649490,515.943054 235.675690,535.005127 
	C258.170502,547.988708 280.589233,561.110046 303.259216,573.781189 
	C311.965607,578.647522 321.152802,578.220520 329.935303,573.140564 
	C351.847687,560.465942 373.769012,547.806641 395.680939,535.131287 
	C440.371857,509.279114 484.972351,483.268585 529.809875,457.673370 
	C540.711548,451.450195 545.702332,442.783691 545.685974,430.488129 
	C545.605774,370.158905 545.649292,309.829468 545.649536,248.500107 
z"/>
<path fill="#000000" opacity="1.000000" stroke="none" 
	d="
M109.654892,237.999878 
	C109.654175,225.499954 109.741066,213.498978 109.596512,201.500809 
	C109.556190,198.153915 110.506340,196.102921 113.593193,194.323853 
	C144.179214,176.696152 174.635742,158.844055 205.176376,141.137329 
	C239.755310,121.089302 274.462372,101.260193 308.906982,80.984673 
	C314.310303,77.804054 318.165070,78.120125 323.368561,81.159752 
	C366.210297,106.185951 409.214294,130.934326 452.169983,155.765457 
	C474.223328,168.513687 496.249298,181.309891 518.366882,193.945770 
	C521.388977,195.672333 522.400391,197.745178 522.397034,201.142548 
	C522.320190,277.641937 522.323608,354.141449 522.402710,430.640839 
	C522.406250,434.051575 521.315063,436.005157 518.285767,437.748199 
	C469.072052,466.066315 419.933411,494.514862 370.778168,522.934570 
	C353.769440,532.768311 336.709045,542.514832 319.801697,552.519836 
	C316.729828,554.337646 314.444458,554.112854 311.562500,552.439270 
	C268.928253,527.681274 226.255692,502.989227 183.585052,478.293945 
	C160.664246,465.028717 137.776535,451.704865 114.755569,438.615540 
	C110.910454,436.429260 109.549545,433.897583 109.558937,429.498260 
	C109.694733,365.832336 109.653687,302.166077 109.654892,237.999878 
M135.349258,262.499908 
	C135.349014,313.319489 135.401871,364.139191 135.252609,414.958344 
	C135.240005,419.247711 136.770187,421.524506 140.375381,423.573364 
	C163.091843,436.483490 185.705154,449.575653 208.321381,462.661530 
	C240.729294,481.412933 273.090912,500.244446 305.514252,518.969177 
	C316.221222,525.152649 316.144379,524.816711 326.655273,518.680725 
	C357.269165,500.809174 388.002838,483.142853 418.688324,465.394043 
	C443.181915,451.226654 467.657654,437.028351 492.187347,422.923798 
	C495.182190,421.201721 496.750366,419.280365 496.743774,415.506287 
	C496.627441,349.024200 496.638428,282.541809 496.725159,216.059647 
	C496.729401,212.795776 495.639526,210.867767 492.850006,209.277924 
	C479.977661,201.941406 467.206055,194.428391 454.376709,187.016037 
	C413.013794,163.117905 371.394226,139.647934 330.444122,115.062546 
	C320.037048,108.814400 311.720917,106.453026 302.238159,115.067032 
	C300.924255,116.260574 299.014557,116.779610 297.431000,117.697716 
	C264.473572,136.805725 231.530762,155.938995 198.569000,175.039551 
	C179.273926,186.220612 159.986084,197.415207 140.610962,208.456223 
	C136.710434,210.678970 135.125748,213.367325 135.229660,218.014114 
	C135.553665,232.503021 135.349228,247.003738 135.349258,262.499908 
z"/>
<path fill="#000000" opacity="1.000000" stroke="none" 
	d="
M281.322266,461.999390 
	C281.322693,468.625641 281.322693,474.752167 281.322693,480.635559 
	C278.597687,481.878387 277.327026,480.112946 275.884247,479.204651 
	C270.108185,475.568237 264.472931,471.705170 258.650970,468.146088 
	C255.892700,466.459869 254.808151,464.263184 254.857071,461.139984 
	C254.958832,454.642578 254.923691,448.142792 254.922852,441.643982 
	C254.911270,352.659912 254.941452,263.675781 254.774109,174.692017 
	C254.763504,169.053238 256.303009,165.678497 261.428650,162.783798 
	C278.674255,153.044403 295.621613,142.772964 312.591339,132.552826 
	C315.535553,130.779678 317.763031,130.746353 320.778870,132.540512 
	C343.660156,146.152817 366.632202,159.613419 389.644012,173.004410 
	C392.689117,174.776413 393.156281,176.405319 391.121857,179.291107 
	C387.381927,184.596039 383.748230,189.989365 380.358887,195.522659 
	C378.467651,198.610321 376.767090,199.062714 373.595154,197.122543 
	C356.693176,186.784088 339.560455,176.819275 322.757355,166.325195 
	C318.310028,163.547699 315.030945,163.448334 310.589813,166.192429 
	C302.815704,170.995865 294.670593,175.221649 286.537231,179.410492 
	C282.901123,181.283157 281.202759,183.469894 281.227631,187.874878 
	C281.426239,223.034149 281.444427,258.195618 281.233551,293.354706 
	C281.202484,298.529724 282.856873,299.792572 287.811218,299.750488 
	C313.971313,299.528259 340.134338,299.643463 366.296326,299.653198 
	C373.124329,299.655762 373.155151,299.684692 373.183075,306.684509 
	C373.208313,313.016571 372.987335,319.356689 373.243317,325.678345 
	C373.420013,330.042267 371.801605,331.449982 367.446320,331.424377 
	C340.951965,331.268524 314.456268,331.343201 287.960999,331.352173 
	C281.349731,331.354401 281.335388,331.373444 281.334106,338.023529 
	C281.326141,379.182220 281.325165,420.340912 281.322266,461.999390 
z"/>
<path fill="#000000" opacity="1.000000" stroke="none" 
	d="
M235.181854,445.857178 
	C234.899750,448.724884 235.921127,451.325500 233.725433,454.018219 
	C227.445496,451.183655 221.578018,447.489594 215.757248,443.777039 
	C214.081390,442.708191 213.965652,440.311676 213.459549,438.384674 
	C202.815262,397.857330 192.172028,357.329742 181.499207,316.809937 
	C180.868744,314.416321 179.991211,312.087799 178.303970,309.756836 
	C178.303970,346.673187 178.303970,383.589539 178.303970,421.437103 
	C169.741348,417.924988 162.947113,413.559845 156.213135,409.116943 
	C154.679535,408.105133 154.845352,406.187012 154.845627,404.510345 
	C154.854645,349.017609 154.874588,293.524902 154.845078,238.032181 
	C154.843597,235.251419 155.723480,233.327072 158.256348,231.958878 
	C164.936234,228.350540 171.198532,223.958298 179.008286,220.531860 
	C188.000748,251.110535 196.832947,281.144196 205.870712,311.876892 
	C207.127777,309.383087 206.722733,307.566498 206.724106,305.831604 
	C206.750977,272.002869 206.807159,238.173798 206.653656,204.345718 
	C206.634689,200.170120 207.796188,197.565857 211.608948,195.632431 
	C219.115448,191.825974 225.998917,186.828125 235.181747,182.764496 
	C235.181747,271.024872 235.181747,358.203156 235.181854,445.857178 
z"/>
<path fill="#000000" opacity="1.000000" stroke="none" 
	d="
M421.792328,271.000000 
	C421.786591,257.674774 421.562744,244.843933 421.891083,232.027252 
	C422.010803,227.354248 420.283203,224.747025 416.431549,222.472382 
	C408.697632,217.905090 401.257965,212.842575 393.609283,208.126465 
	C390.403717,206.149963 389.079651,204.339661 391.766907,200.702637 
	C394.919617,196.435608 397.568909,191.774582 400.194092,187.146896 
	C402.254608,183.514679 404.300507,182.844147 408.043457,185.293549 
	C420.567902,193.489563 433.324127,201.330841 445.968292,209.344757 
	C457.909821,216.913345 469.815887,224.537811 481.754303,232.111374 
	C483.302917,233.093781 485.194244,233.821671 485.206879,236.004425 
	C485.261658,245.449219 485.230347,254.894531 485.230347,265.482788 
	C472.761993,258.698914 462.662933,250.151001 451.410461,243.487213 
	C449.837677,245.853607 450.375488,247.732254 450.374481,249.496185 
	C450.340424,307.459564 450.289124,365.423126 450.445679,423.386108 
	C450.458099,427.983398 449.103302,430.722626 445.041443,432.830322 
	C437.720154,436.629242 430.626770,440.867432 421.792816,445.850159 
	C421.792816,386.758606 421.792816,329.129303 421.792328,271.000000 
z"/>
</svg>