<svg version="1.1" id="Layer_1" xmlns="http://www.w3.org/2000/svg" xmlns:xlink="http://www.w3.org/1999/xlink" x="0px" y="0px"
	 width="100%" viewBox="0 0 624 624" enable-background="new 0 0 624 624" xml:space="preserve">
<path fill="#000000" opacity="1.000000" stroke="none" 
	d="
M536.508606,482.645752 
	C513.537354,495.987122 490.887024,509.151276 468.231689,522.306702 
	C445.426117,535.549316 422.656799,548.855042 399.794769,561.999512 
	C379.120575,573.886047 358.641632,586.166565 337.501953,597.169312 
	C324.157379,604.114868 309.471832,603.987183 295.729492,597.643066 
	C278.697052,589.780090 262.919281,579.513184 246.623154,570.243408 
	C230.052139,560.817261 213.477631,551.395752 196.983429,541.836243 
	C179.183533,531.520081 161.506943,520.991272 143.717636,510.656586 
	C124.926308,499.739807 105.900429,489.216797 87.285316,478.009674 
	C71.359093,468.421356 61.680939,454.568909 61.669975,435.287323 
	C61.624775,355.787964 61.703663,276.288574 61.616249,196.789322 
	C61.595333,177.766815 70.849052,163.980545 86.283310,154.548996 
	C109.092354,140.610886 132.496597,127.645775 155.665741,114.298195 
	C182.127396,99.053825 208.673401,83.954628 235.060867,68.583115 
	C254.428452,57.300915 273.513092,45.485596 293.486237,35.322533 
	C309.673645,27.085791 326.456055,28.071926 342.072906,36.897392 
	C379.946411,58.300636 417.508270,80.255531 455.186096,102.004822 
	C485.662964,119.597412 516.392395,136.774338 546.482849,155.005310 
	C561.619141,164.175949 570.360596,178.214005 570.355774,196.701187 
	C570.335083,276.367188 570.471252,356.033539 570.251221,435.698944 
	C570.202026,453.497620 561.255859,466.848511 546.628967,476.538361 
	C543.448730,478.645142 540.098999,480.495972 536.508606,482.645752 
M123.995720,470.465149 
	C128.177872,472.878448 132.361160,475.289795 136.541992,477.705414 
	C169.704865,496.866058 202.867584,516.026978 236.029694,535.188965 
	C257.654572,547.684448 279.248047,560.234436 300.916229,572.654236 
	C310.775604,578.305542 320.616089,578.541199 330.702118,572.641235 
	C357.442139,556.999512 384.329651,541.610046 411.151154,526.107605 
	C450.660309,503.271912 490.086029,480.290253 529.719116,457.671936 
	C540.536377,451.498627 545.730896,442.869629 545.694702,430.503937 
	C545.574280,389.341766 545.648254,348.179047 545.648193,307.016541 
	C545.648071,271.186829 545.682129,235.357086 545.626831,199.527451 
	C545.611450,189.530685 541.932312,181.340256 532.992615,176.127365 
	C520.335388,168.746658 507.636322,161.437561 494.951294,154.104462 
	C462.084045,135.104172 429.214386,116.108078 396.346344,97.109154 
	C374.724030,84.610664 353.097534,72.119370 331.483551,59.606472 
	C321.433929,53.788494 311.363892,53.404469 301.191498,59.289700 
	C276.406097,73.629250 251.605377,87.942345 226.817596,102.277771 
	C185.308060,126.283813 143.919617,150.502975 102.219238,174.172699 
	C91.227043,180.412018 86.209503,188.992096 86.305374,201.281677 
	C86.432777,217.612381 86.340485,233.944809 86.341400,250.276489 
	C86.344818,310.937012 86.356529,371.597565 86.342026,432.258087 
	C86.339668,442.104492 89.833786,450.257690 98.306961,455.555389 
	C106.489937,460.671722 114.997734,465.268463 123.995720,470.465149 
z"/>
<path fill="#000000" opacity="1.000000" stroke="none" 
	d="
M466.161194,163.753571 
	C483.490509,173.782410 500.442657,183.736755 517.533691,193.446579 
	C520.973633,195.400909 522.437134,197.543503 522.430420,201.651169 
	C522.306580,277.647736 522.309448,353.644623 522.438171,429.641174 
	C522.445312,433.870483 521.056885,436.215179 517.430847,438.300201 
	C475.700958,462.295044 434.062500,486.448883 392.393066,510.548950 
	C368.459930,524.390991 344.470337,538.136536 320.623413,552.125366 
	C317.120972,554.179993 314.470276,554.159912 311.033203,552.161682 
	C274.595703,530.977966 238.076385,509.934998 201.594009,488.828400 
	C172.611588,472.060852 143.683762,455.198395 114.634254,438.548065 
	C110.994972,436.462097 109.560066,434.108948 109.566521,429.878937 
	C109.682297,354.049011 109.682556,278.218781 109.565392,202.388870 
	C109.558937,198.212540 110.811333,195.790649 114.484421,193.671432 
	C177.112854,157.537460 239.816559,121.527870 302.076782,84.767838 
	C312.225037,78.776047 319.291016,78.354507 329.690582,84.584465 
	C374.696808,111.545860 420.389740,137.360916 466.161194,163.753571 
M421.957458,463.387817 
	C445.027435,450.043274 468.031738,436.582642 491.227020,423.459625 
	C495.475952,421.055756 496.772369,418.308502 496.761597,413.578674 
	C496.613251,348.414825 496.607971,283.250305 496.780060,218.086548 
	C496.792786,213.271881 495.274841,210.631241 491.148926,208.257111 
	C434.271484,175.528870 377.470245,142.667892 320.720276,109.718964 
	C317.245239,107.701363 314.654480,107.728363 311.189301,109.761642 
	C284.767120,125.265472 258.234589,140.581512 231.717239,155.922852 
	C201.587585,173.354034 171.468643,190.804276 141.261597,208.100510 
	C137.101852,210.482330 135.192047,213.112808 135.208176,218.261414 
	C135.413452,283.758331 135.375748,349.256134 135.274567,414.753510 
	C135.268524,418.658356 136.184982,421.210327 139.803757,423.197815 
	C150.312958,428.969543 160.634369,435.083740 171.018463,441.082642 
	C217.887070,468.158661 264.757019,495.232361 311.604065,522.345703 
	C314.160370,523.825195 316.237274,524.771362 319.333038,522.962402 
	C353.273193,503.130035 387.315155,483.471863 421.957458,463.387817 
z"/>
<path fill="#000000" opacity="1.000000" stroke="none" 
	d="
M281.326294,461.999359 
	C281.326691,468.623199 281.326691,474.747284 281.326691,480.642761 
	C278.632233,481.809448 277.293854,480.217224 275.834808,479.283234 
	C270.224121,475.691620 264.772858,471.838531 259.051605,468.436981 
	C255.879929,466.551300 254.887512,464.110870 254.916702,460.625610 
	C255.035263,446.465759 255.011566,432.304535 255.007568,418.143829 
	C254.984573,336.844452 255.003082,255.544968 254.810226,174.246002 
	C254.797150,168.735107 256.411224,165.537689 261.309631,162.759186 
	C278.542023,152.984421 295.507629,142.736832 312.506470,132.555084 
	C315.390411,130.827698 317.693359,130.639618 320.739288,132.453415 
	C343.623260,146.080505 366.599457,159.553467 389.601868,172.980270 
	C392.586334,174.722321 393.150085,176.380402 391.101196,179.297745 
	C387.370514,184.609802 383.782745,190.033325 380.384796,195.563629 
	C378.497864,198.634644 376.789001,199.092239 373.590393,197.134064 
	C356.549103,186.701492 339.307434,176.595581 322.292755,166.120575 
	C318.463165,163.762909 315.494843,163.269547 311.426086,165.732773 
	C303.175873,170.727509 294.600372,175.196747 286.058746,179.692230 
	C282.787415,181.413956 281.231262,183.477722 281.249176,187.448715 
	C281.408630,222.766602 281.451294,258.086121 281.234039,293.403381 
	C281.201813,298.643280 282.967255,299.786865 287.855865,299.746948 
	C314.009888,299.533508 340.166565,299.643677 366.322327,299.653442 
	C373.009552,299.655945 373.152252,299.777039 373.193237,306.222321 
	C373.234589,312.719330 373.004700,319.224213 373.257111,325.711517 
	C373.428375,330.113159 371.712494,331.446686 367.407898,331.422455 
	C340.919800,331.273224 314.430420,331.343628 287.941467,331.352936 
	C281.352661,331.355255 281.340240,331.375519 281.338989,338.051666 
	C281.331268,379.200989 281.329590,420.350281 281.326294,461.999359 
z"/>
<path fill="#000000" opacity="1.000000" stroke="none" 
	d="
M235.168732,445.874390 
	C234.921356,448.762360 235.853622,451.354553 233.574432,454.282501 
	C227.687241,450.843353 221.683228,447.463165 215.833496,443.834320 
	C214.256332,442.855988 214.074203,440.717926 213.609116,438.948059 
	C202.920578,398.275269 192.233307,357.602112 181.518326,316.936279 
	C180.886765,314.539337 180.024368,312.203186 178.479965,309.838867 
	C178.479965,346.709595 178.479965,383.580353 178.479965,420.748413 
	C173.795624,420.725220 171.282745,417.572906 167.982162,416.425262 
	C156.792755,412.534760 154.364502,404.852295 154.523605,393.382935 
	C155.228394,342.571686 154.920837,291.745148 154.746506,240.924911 
	C154.728775,235.754913 156.250397,232.572739 160.862427,230.256012 
	C166.627274,227.360184 172.113419,223.909531 178.856873,220.047165 
	C187.941193,250.925125 196.812393,281.078644 205.683594,311.232178 
	C206.008118,311.211090 206.332642,311.189972 206.657166,311.168884 
	C206.657166,308.488556 206.656708,305.808258 206.657227,303.127930 
	C206.663635,270.136047 206.722778,237.143997 206.607193,204.152542 
	C206.593445,200.226608 207.606064,197.725647 211.280762,195.792160 
	C218.761139,191.856323 225.967224,187.399170 234.911697,182.214722 
	C235.499954,212.560638 235.072525,241.505753 235.147949,270.439270 
	C235.223938,299.598511 235.146088,328.758209 235.146530,357.917694 
	C235.146973,387.077057 235.160904,416.236420 235.168732,445.874390 
z"/>
<path fill="#000000" opacity="1.000000" stroke="none" 
	d="
M450.347290,361.000092 
	C450.345245,382.489136 450.235199,403.479218 450.437042,424.466309 
	C450.474579,428.368744 449.133362,430.558289 445.833832,432.334412 
	C439.240936,435.883301 432.808105,439.730072 426.318817,443.470520 
	C425.301636,444.056793 424.323090,444.686523 422.880920,444.295227 
	C420.950958,442.499939 421.833466,440.018280 421.831024,437.825043 
	C421.755585,369.360931 421.689331,300.896729 421.815369,232.432877 
	C421.824127,227.676605 420.431183,224.870163 416.282990,222.469742 
	C408.365570,217.888138 400.848450,212.619919 393.080933,207.771637 
	C390.107269,205.915558 389.325226,204.182678 391.571228,201.011093 
	C394.836365,196.400436 397.809631,191.551056 400.526093,186.594543 
	C402.515930,182.963898 404.539032,183.122574 407.662048,185.111923 
	C429.565186,199.064392 451.217987,213.458084 473.649780,226.509399 
	C483.018921,231.960541 487.037079,238.084259 485.461334,248.666550 
	C484.693512,253.823059 485.328522,259.188477 485.328522,266.126404 
	C473.250671,258.040344 462.461182,250.816864 450.346985,242.706467 
	C450.346985,282.841339 450.346985,321.670715 450.347290,361.000092 
z"/>
</svg>