<svg version="1.1" id="Layer_1" xmlns="http://www.w3.org/2000/svg" xmlns:xlink="http://www.w3.org/1999/xlink" x="0px" y="0px"
	 width="100%" viewBox="0 0 624 624" enable-background="new 0 0 624 624" xml:space="preserve">
<path fill="#000000" opacity="1.000000" stroke="none" 
	d="
M226.730469,100.681168 
	C250.260391,87.072456 273.638336,73.916245 296.598022,60.066700 
	C309.686584,52.171528 321.763519,52.087410 335.017944,59.846073 
	C391.929291,93.159966 449.081055,126.063164 506.146912,159.113068 
	C515.225159,164.370773 524.301453,169.631912 533.397888,174.858047 
	C542.495911,180.085083 546.854492,188.261032 546.869629,198.407150 
	C546.986389,276.729309 546.972778,355.051819 546.847717,433.373993 
	C546.831482,443.566620 542.301575,451.741699 533.327637,456.953491 
	C505.388916,473.179413 477.388336,489.298798 449.417328,505.469086 
	C410.059937,528.221924 370.657318,550.897278 331.388306,573.801636 
	C321.541687,579.544800 311.769989,580.113525 302.005249,574.600952 
	C281.414398,562.976379 261.015045,551.012512 240.537872,539.186584 
	C196.405258,513.699219 152.571671,487.671234 107.983673,463.007111 
	C91.728432,454.015442 84.761078,442.963379 85.208138,424.039398 
	C86.250603,379.912323 85.184204,335.737640 85.148888,291.582092 
	C85.126503,263.591309 85.439301,235.600311 85.560646,207.609238 
	C85.586487,201.649643 84.568756,195.725159 86.556770,189.777481 
	C88.791580,183.091446 92.781708,178.104385 98.794632,174.626755 
	C141.327988,150.027313 183.866455,125.436684 226.730469,100.681168 
M517.632751,194.970367 
	C488.342041,178.071289 459.037384,161.196365 429.764191,144.267014 
	C393.714172,123.418457 357.657654,102.580566 321.699921,81.573761 
	C317.571289,79.161789 314.326202,79.139351 310.272858,81.650429 
	C301.073181,87.349678 291.617676,92.637375 282.245300,98.056252 
	C226.440323,130.321243 170.644287,162.601761 114.783363,194.769608 
	C111.449623,196.689362 110.259254,198.908722 110.264526,202.724457 
	C110.369102,278.378265 110.367989,354.032288 110.282112,429.686127 
	C110.278038,433.269897 111.318108,435.381348 114.534706,437.211365 
	C135.527405,449.154541 156.392990,461.321106 177.301392,473.412506 
	C221.859558,499.180664 266.437164,524.915344 310.940613,550.777710 
	C314.397064,552.786316 317.068481,552.842896 320.558319,550.788635 
	C341.661133,538.366455 362.892365,526.162354 384.087646,513.897400 
	C428.497620,488.198883 472.899628,462.486511 517.352539,436.862457 
	C520.268311,435.181732 521.680542,433.268097 521.677246,429.779846 
	C521.605957,353.626099 521.613220,277.472198 521.674805,201.318390 
	C521.677063,198.491959 520.974915,196.452713 517.632751,194.970367 
z"/>
<path fill="#000000" opacity="1.000000" stroke="none" 
	d="
M154.362183,432.709839 
	C149.145401,429.685303 144.317108,426.707764 139.307663,424.074951 
	C135.814087,422.238800 134.512238,419.854126 134.520844,415.770752 
	C134.654449,352.445251 134.945267,289.115814 134.286758,225.796783 
	C134.169128,214.485977 137.494827,208.581100 147.325500,203.019272 
	C202.562714,171.768250 257.353546,139.727753 312.246857,107.870758 
	C315.131287,106.196800 317.318268,106.491768 320.058411,108.082230 
	C362.846008,132.917435 405.681000,157.671021 448.509918,182.435013 
	C463.074036,190.856110 477.589813,199.364273 492.265320,207.586975 
	C496.075226,209.721680 497.502808,212.199661 497.492126,216.649185 
	C497.333496,282.640900 497.318634,348.633240 497.472168,414.624969 
	C497.483368,419.448242 495.881317,422.037018 491.762421,424.407776 
	C435.174835,456.979065 378.653900,489.666840 322.231659,522.523560 
	C317.580292,525.232239 314.073425,525.217468 309.481659,522.540100 
	C267.754700,498.209503 225.908127,474.084106 184.095093,449.901154 
	C174.290588,444.230652 164.480713,438.569458 154.362183,432.709839 
M343.416931,147.161819 
	C335.811615,142.676086 328.119568,138.328476 320.645569,133.633713 
	C317.827240,131.863403 315.696533,131.993500 312.932831,133.646225 
	C295.349243,144.161469 277.721893,154.605988 259.994812,164.876831 
	C256.627472,166.827820 256.255493,169.435745 256.258728,172.795883 
	C256.308807,224.795441 256.275177,276.795074 256.276764,328.794708 
	C256.278107,372.461060 256.290985,416.127380 256.340607,459.793701 
	C256.342987,461.886108 255.456360,464.513641 257.498779,465.918427 
	C264.418823,470.677979 271.519226,475.175262 278.504547,479.742615 
	C280.540680,477.253845 280.038940,475.172913 280.053711,473.253693 
	C280.259003,446.592560 280.508392,419.931183 280.538910,393.269592 
	C280.560059,374.774902 280.230927,356.280090 280.120789,337.784943 
	C280.078369,330.656677 280.157135,330.636139 287.386963,330.632416 
	C313.553436,330.618927 339.720703,330.518127 365.885712,330.710297 
	C370.576141,330.744751 372.055847,329.156952 371.821716,324.649658 
	C371.528168,318.998474 371.762909,313.320160 371.760712,307.653534 
	C371.757874,300.342010 371.754089,300.339325 364.225677,300.336884 
	C338.059204,300.328400 311.892731,300.331268 285.726288,300.299988 
	C283.164764,300.296906 280.435944,301.013672 280.434631,296.551758 
	C280.424042,260.057526 280.255096,223.563065 279.998047,187.069626 
	C279.970886,183.215271 281.395508,180.949890 284.738770,179.188904 
	C293.877075,174.375427 302.995300,169.501587 311.890076,164.259048 
	C315.398926,162.190933 318.031189,162.258820 321.441589,164.366852 
	C335.611572,173.125580 349.927277,181.649139 364.214478,190.217331 
	C368.460327,192.763611 372.787933,195.173599 377.390656,197.826187 
	C382.247192,190.372986 387.281128,183.603683 391.574982,175.537079 
	C375.541718,166.074829 359.804016,156.786987 343.416931,147.161819 
M156.201508,306.500000 
	C156.203415,338.665070 156.194946,370.830139 156.232880,402.995178 
	C156.235168,404.935059 155.477097,407.402100 157.315277,408.661377 
	C163.273193,412.742889 169.500412,416.401398 177.474945,420.060730 
	C177.331131,380.675720 176.270538,342.493866 177.661026,303.749176 
	C179.780792,305.295441 179.851044,306.863708 180.216003,308.248383 
	C191.699600,351.818298 203.155136,395.395660 214.659195,438.960175 
	C215.071320,440.520813 215.239044,442.368073 216.846558,443.317017 
	C222.089325,446.412018 227.368530,449.445282 233.291626,452.884247 
	C233.291626,363.183167 233.291626,274.526672 233.291626,185.898697 
	C230.606018,185.283539 229.072617,186.804611 227.403870,187.747253 
	C222.618149,190.450577 218.008743,193.489502 213.112167,195.965652 
	C209.166702,197.960846 207.856812,200.679413 207.880096,205.087448 
	C208.067596,240.584900 208.029510,276.083588 208.000763,311.581879 
	C207.999390,313.275360 208.733490,315.198669 206.434006,317.534760 
	C197.011932,285.433289 187.765137,253.928925 178.425735,222.109039 
	C171.472153,224.967270 166.381851,228.822403 160.736542,231.611862 
	C157.288040,233.315842 156.126053,235.656799 156.154266,239.503326 
	C156.315582,261.501160 156.214600,283.500916 156.201508,306.500000 
M449.647339,286.500092 
	C449.647339,271.729614 449.647339,256.959106 449.647339,240.856461 
	C461.325256,248.675186 471.944092,255.784821 482.562927,262.894470 
	C483.055450,262.595215 483.547943,262.295990 484.040466,261.996735 
	C484.040466,254.734268 483.869232,247.466141 484.108490,240.211548 
	C484.239685,236.233307 482.734741,233.835876 479.374817,231.742447 
	C458.309662,218.617828 437.381714,205.273209 416.357452,192.082474 
	C412.301147,189.537491 408.568573,186.370361 403.513306,184.780838 
	C399.535461,189.705765 396.706085,195.376785 393.150879,200.550781 
	C391.039093,203.624084 391.542999,205.453018 394.641296,207.376633 
	C402.282867,212.121002 409.608887,217.395035 417.395142,221.876892 
	C421.956146,224.502258 423.230835,227.768204 423.223022,232.816849 
	C423.117645,300.642944 423.199371,368.469299 423.287292,436.295563 
	C423.289948,438.333313 422.479218,440.649231 424.945465,442.882141 
	C431.261261,439.255005 437.612762,435.338684 444.218689,431.912933 
	C448.270416,429.811707 449.778076,427.164948 449.758850,422.486389 
	C449.573883,377.491577 449.647369,332.495697 449.647339,286.500092 
z"/>
</svg>