<svg version="1.1" id="Layer_1" xmlns="http://www.w3.org/2000/svg" xmlns:xlink="http://www.w3.org/1999/xlink" x="0px" y="0px"
	 width="100%" viewBox="0 0 624 624" enable-background="new 0 0 624 624" xml:space="preserve">
<path fill="#000000" opacity="1.000000" stroke="none" 
	d="
M85.647263,328.999878 
	C85.649002,285.670044 85.732567,242.839935 85.600388,200.010529 
	C85.563293,187.992340 90.582733,179.667633 101.083817,173.676056 
	C138.543777,152.302612 175.791031,130.556305 213.118637,108.950859 
	C241.366425,92.600868 269.726837,76.441116 297.811646,59.815800 
	C310.884247,52.077240 322.891663,53.038345 335.686310,60.648788 
	C364.298950,77.667953 393.274475,94.076698 422.088867,110.757111 
	C448.892365,126.273430 475.671967,141.831009 502.475830,157.346725 
	C512.562378,163.185471 522.660156,169.005981 532.803345,174.745560 
	C541.740417,179.802658 546.267639,187.565826 546.279480,197.644928 
	C546.372192,276.471710 546.365295,355.298706 546.308044,434.125549 
	C546.300842,444.101959 541.611572,451.751312 533.069092,456.709290 
	C490.297394,481.533508 447.448517,506.224670 404.640106,530.985718 
	C380.861633,544.739502 356.980316,558.322571 333.400085,572.409058 
	C321.796906,579.340576 310.719452,579.566040 299.149963,572.844971 
	C262.290344,551.432129 225.393280,530.083618 188.489868,508.746216 
	C158.935852,491.658203 129.386459,474.561646 99.760300,457.599365 
	C90.325584,452.197571 85.690201,444.200989 85.674431,433.491150 
	C85.623390,398.827454 85.650452,364.163666 85.647263,328.999878 
M521.648804,254.500092 
	C521.649658,237.834396 521.324951,221.158829 521.828674,204.508347 
	C522.004089,198.711807 519.767761,195.918259 515.133545,193.268250 
	C479.283630,172.768234 443.545197,152.073227 407.778595,131.427673 
	C378.502075,114.528374 349.209900,97.655869 319.999420,80.643112 
	C316.993988,78.892677 314.766968,78.971367 311.829010,80.759010 
	C303.299103,85.949135 294.558228,90.791969 285.913849,95.794731 
	C228.845688,128.821793 171.798599,161.885406 114.668808,194.805511 
	C111.484314,196.640518 110.265160,198.602997 110.269646,202.240326 
	C110.363373,278.235382 110.360252,354.230591 110.297173,430.225739 
	C110.294540,433.396606 111.130432,435.377472 114.071472,437.007446 
	C123.390236,442.172058 132.497894,447.716034 141.725327,453.047302 
	C198.240662,485.699615 254.790039,518.293152 311.230682,551.074036 
	C314.630066,553.048401 317.020813,553.054260 320.284546,551.151978 
	C348.484100,534.715820 376.772217,518.431580 405.021118,502.079865 
	C442.053955,480.643616 479.044006,459.133026 516.147217,437.819305 
	C520.049683,435.577576 521.783020,433.229401 521.768005,428.488770 
	C521.585693,370.826355 521.648865,313.163116 521.648804,254.500092 
z"/>
<path fill="#000000" opacity="1.000000" stroke="none" 
	d="
M478.697144,431.819580 
	C442.954803,452.527313 407.528503,473.047058 372.091614,493.548492 
	C354.518036,503.715393 336.898987,513.804138 319.365906,524.040283 
	C316.411377,525.765198 314.052277,524.955688 311.470795,523.461731 
	C294.033691,513.370361 276.565033,503.333527 259.121918,493.252563 
	C232.453552,477.840088 205.795883,462.409058 179.136978,446.980225 
	C165.737701,439.225372 152.367630,431.419586 138.932739,423.726929 
	C136.101959,422.106049 134.571182,420.272430 134.577148,416.678436 
	C134.688660,349.515442 134.688278,282.352203 134.597809,215.189163 
	C134.593262,211.819321 136.024628,210.032181 138.684830,208.495468 
	C164.056992,193.838776 189.394424,179.121964 214.750320,164.437088 
	C246.295624,146.167603 277.918976,128.030777 309.324860,109.524834 
	C314.139648,106.687714 317.671082,106.600945 322.446655,109.392738 
	C367.710541,135.854019 413.094116,162.110657 458.459930,188.397446 
	C469.838959,194.990936 481.226654,201.573273 492.721771,207.960236 
	C495.988800,209.775482 497.442596,211.855087 497.435425,215.784225 
	C497.313293,282.447205 497.312500,349.110535 497.435883,415.773499 
	C497.443054,419.646820 496.225189,421.954865 492.889832,423.704041 
	C488.175110,426.176697 483.627777,428.968597 478.697144,431.819580 
M280.634308,450.500092 
	C280.632843,412.839264 280.628937,375.178406 280.632172,337.517578 
	C280.632751,330.672943 280.646210,330.653778 287.452209,330.651489 
	C313.781677,330.642578 340.111664,330.566223 366.440125,330.728943 
	C370.647491,330.754913 372.007263,329.341309 371.846039,325.265900 
	C371.602570,319.110016 371.512878,312.919891 371.886932,306.776550 
	C372.194733,301.720856 370.426788,300.193085 365.359772,300.236084 
	C339.198853,300.458130 313.034973,300.344452 286.872192,300.301758 
	C284.936523,300.298615 282.881714,300.787628 281.032684,299.565063 
	C280.894806,299.069122 280.650635,298.600433 280.650391,298.131622 
	C280.632660,260.470673 280.657684,222.809647 280.585022,185.148819 
	C280.579681,182.380051 281.799438,180.918518 284.046448,179.697433 
	C293.701630,174.450577 303.363770,169.211182 312.896729,163.748062 
	C315.770081,162.101425 318.077362,162.321182 320.736755,163.985519 
	C326.521362,167.605667 332.415985,171.049713 338.254272,174.584503 
	C349.784088,181.565170 361.277039,188.607605 372.864685,195.490692 
	C374.490906,196.456650 376.629761,198.884628 378.491333,196.172882 
	C382.986816,189.624283 387.800842,183.246490 391.325470,175.979599 
	C390.605988,175.304092 390.198364,174.755920 389.656097,174.436050 
	C366.145996,160.568665 342.594025,146.771744 319.147614,132.797699 
	C316.682251,131.328354 315.183350,132.283279 313.300781,133.399780 
	C296.268311,143.501236 279.304413,153.723373 262.122314,163.564255 
	C257.626526,166.139175 256.136749,169.162231 256.145203,174.277115 
	C256.297119,266.429993 256.440704,358.584015 256.014526,450.735168 
	C255.965744,461.283081 257.717804,468.927887 268.058380,473.206848 
	C272.209290,474.924469 275.420746,478.632812 280.633820,479.975800 
	C280.633820,470.109344 280.633820,460.804749 280.634308,450.500092 
M233.792465,355.500000 
	C233.792465,298.951538 233.792465,242.403076 233.792465,184.246719 
	C225.949310,188.670700 219.600449,192.459320 213.053131,195.866547 
	C209.166016,197.889389 207.882965,200.592072 207.908859,204.984406 
	C208.116074,240.136154 208.081558,275.289398 208.060669,310.442139 
	C208.059555,312.308563 208.734741,314.396851 206.334839,317.020111 
	C196.925354,285.015198 187.722198,253.712051 178.287323,221.620712 
	C171.835373,225.299591 166.605621,228.517487 161.156509,231.306885 
	C157.437103,233.210815 156.060730,235.718307 156.109131,239.965515 
	C156.323639,258.788940 156.177078,277.616425 156.177292,296.442444 
	C156.177719,331.928619 156.177383,367.414795 156.224289,402.900909 
	C156.227264,405.144409 155.453888,407.888550 157.912445,409.315643 
	C164.032623,412.868073 169.918640,416.884125 177.407547,420.131409 
	C178.402573,381.377777 175.762482,343.384460 178.090607,305.145508 
	C179.969025,306.297546 179.984421,307.839417 180.356186,309.244049 
	C191.449387,351.157257 203.016876,392.953552 213.369522,435.048645 
	C216.222015,446.647186 225.934753,447.019287 232.482834,452.562073 
	C232.919159,452.312347 233.355469,452.062622 233.791794,451.812897 
	C233.791794,420.041931 233.791794,388.270966 233.792465,355.500000 
M423.139557,234.603271 
	C423.139557,303.871521 423.139557,373.139771 423.139557,443.308197 
	C431.405334,440.009430 437.100037,435.539124 443.518433,432.470978 
	C448.081299,430.289856 449.808990,427.305267 449.788574,421.987030 
	C449.567017,364.355072 449.644257,306.721985 449.674377,249.089203 
	C449.675537,246.858414 449.213348,244.515060 450.508331,241.878296 
	C461.905457,248.129700 471.479156,256.692566 482.880981,262.851501 
	C483.389679,261.683441 483.847534,261.108673 483.864410,260.521240 
	C484.083801,252.871185 484.220276,245.218765 484.424469,237.568222 
	C484.493713,234.974594 482.814545,233.862305 480.879578,232.655975 
	C470.148712,225.966049 459.487122,219.165054 448.794159,212.414230 
	C435.287598,203.887070 421.723297,195.449738 408.299255,186.794815 
	C405.046265,184.697495 402.844757,184.292282 400.732178,188.145355 
	C398.416870,192.368027 395.833160,196.463013 393.104095,200.433319 
	C390.845245,203.719559 391.743225,205.734726 394.879913,207.679474 
	C402.090851,212.150269 408.987122,217.168625 416.400391,221.259338 
	C421.631500,224.145905 424.114136,227.756195 423.139557,234.603271 
z"/>
</svg>